<?xml version="1.0" encoding="UTF-8" standalone="no"?>
<svg
   id="logo"
   version="1.1"
   viewBox="0 0 49.600185 57.377518"
   xml:space="preserve"
   sodipodi:docname="online3d.svg"
   width="49.600185"
   height="57.377518"
   inkscape:version="1.4 (e7c3feb100, 2024-10-09)"
   xmlns:inkscape="http://www.inkscape.org/namespaces/inkscape"
   xmlns:sodipodi="http://sodipodi.sourceforge.net/DTD/sodipodi-0.dtd"
   xmlns:xlink="http://www.w3.org/1999/xlink"
   xmlns="http://www.w3.org/2000/svg"
   xmlns:svg="http://www.w3.org/2000/svg"><sodipodi:namedview
     id="namedview11"
     pagecolor="#ffffff"
     bordercolor="#666666"
     borderopacity="1.0"
     inkscape:showpageshadow="2"
     inkscape:pageopacity="0.0"
     inkscape:pagecheckerboard="0"
     inkscape:deskcolor="#d1d1d1"
     inkscape:zoom="3.1730769"
     inkscape:cx="114.4"
     inkscape:cy="43.648485"
     inkscape:window-width="1920"
     inkscape:window-height="1200"
     inkscape:window-x="0"
     inkscape:window-y="0"
     inkscape:window-maximized="1"
     inkscape:current-layer="logo" /><defs
     id="defs1"><path
       id="a"
       d="M -5,-1 H 57 V 61 H -5 Z" /><clipPath
       id="d-5"><use
         width="100%"
         height="100%"
         overflow="visible"
         xlink:href="#c"
         id="use1" /></clipPath><path
       id="a-85"
       d="M -5,-1 H 57 V 61 H -5 Z" /><path
       id="c"
       d="M -5,-1 H 57 V 61 H -5 Z" /></defs><clipPath
     id="b"><use
       width="100%"
       height="100%"
       overflow="visible"
       xlink:href="#a"
       id="use2" /></clipPath><g
     transform="translate(-1.2,-1.42257)"
     id="g11"><clipPath
       id="b-3"><use
         width="100%"
         height="100%"
         overflow="visible"
         xlink:href="#a-85"
         id="use3" /></clipPath><g
       clip-path="url(#b-3)"
       id="g10"><clipPath
         id="d"><use
           width="100%"
           height="100%"
           overflow="visible"
           xlink:href="#c"
           id="use4" /></clipPath><g
         stroke-linecap="round"
         stroke-linejoin="round"
         stroke-miterlimit="10"
         id="g9"><path
           transform="translate(0.039092,0.02257)"
           d="m 38.361,22.877 -12.4,-7.3 9.2e-5,-14.177 24.8,14.2 v 28.8 l -12.4,-7.3226 z"
           clip-path="url(#d)"
           fill="#4688b4"
           id="path4" /><path
           transform="rotate(120,26,30.082)"
           d="m 38.4,22.923 -12.522,-7.0887 0.14178,-14.4 24.78,14.166 v 28.8 l -12.522,-7.0883 z"
           clip-path="url(#d-5)"
           fill="#64c0ff"
           id="path5" /><path
           d="M 26,30 V 44.4 L 38.4,37.1 V 22.9 Z"
           clip-path="url(#d)"
           fill="#294e67"
           id="path6" /><path
           d="M 13.6,37.1 V 22.9 L 26,15.6 V 1.423 L 1.2,15.6 v 28.8 z"
           clip-path="url(#d)"
           fill="#294e67"
           id="path7" /><path
           d="M 26,15.6 13.6,22.9 26,30 38.4,22.9 Z"
           clip-path="url(#d)"
           fill="#64c0ff"
           id="path8" /><path
           d="M 13.6,22.9 26,30 V 44.4 L 13.6,37.1 Z"
           clip-path="url(#d)"
           fill="#4688b4"
           id="path9" /></g></g></g></svg>
